<svg xmlns="http://www.w3.org/2000/svg" width="880" height="814" viewBox="0 0 880 814">
<defs><linearGradient id="grad" x1="0" y1="0" x2="1" y2="0"><stop offset="0%" stop-color="#26a641"/><stop offset="100%" stop-color="#39d353"/></linearGradient></defs>
<rect width="880" height="814" rx="16" fill="#0d1117"/>
<text x="24" y="42" font-family="-apple-system, 'Segoe UI', Helvetica, Arial, sans-serif" font-size="13" font-weight="600" letter-spacing="3" fill="#8b949e">NEETCODE 150</text>
<text x="24" y="76" font-family="-apple-system, 'Segoe UI', Helvetica, Arial, sans-serif" font-size="30" font-weight="700" fill="#e6edf3">2 <tspan fill="#8b949e" font-size="20" font-weight="500">/ 150 solved</tspan></text>
<text x="856" y="76" text-anchor="end" font-family="'SFMono-Regular', Consolas, 'Liberation Mono', Menlo, monospace" font-size="22" font-weight="600" fill="#39d353">1.3%</text>
<rect x="24" y="92" width="832" height="12" rx="6.0" fill="#21262d"/><rect x="24" y="92" width="12.0" height="12" rx="6.0" fill="url(#grad)"/>
<rect x="24.0" y="118" width="410.0" height="64" rx="10" fill="#161b22" stroke="#30363d"/>
<text x="40.0" y="144" font-family="-apple-system, 'Segoe UI', Helvetica, Arial, sans-serif" font-size="13.5" font-weight="600" fill="#e6edf3">Arrays &amp; Hashing</text>
<text x="418.0" y="144" text-anchor="end" font-family="'SFMono-Regular', Consolas, 'Liberation Mono', Menlo, monospace" font-size="12.5" fill="#39d353">2 / 9</text>
<rect x="40.0" y="158" width="378.0" height="8" rx="4.0" fill="#21262d"/><rect x="40.0" y="158" width="84.0" height="8" rx="4.0" fill="url(#grad)"/>
<rect x="446.0" y="118" width="410.0" height="64" rx="10" fill="#161b22" stroke="#30363d"/>
<text x="462.0" y="144" font-family="-apple-system, 'Segoe UI', Helvetica, Arial, sans-serif" font-size="13.5" font-weight="600" fill="#e6edf3">Two Pointers</text>
<text x="840.0" y="144" text-anchor="end" font-family="'SFMono-Regular', Consolas, 'Liberation Mono', Menlo, monospace" font-size="12.5" fill="#8b949e">0 / 5</text>
<rect x="462.0" y="158" width="378.0" height="8" rx="4.0" fill="#21262d"/>
<rect x="24.0" y="194" width="410.0" height="64" rx="10" fill="#161b22" stroke="#30363d"/>
<text x="40.0" y="220" font-family="-apple-system, 'Segoe UI', Helvetica, Arial, sans-serif" font-size="13.5" font-weight="600" fill="#e6edf3">Sliding Window</text>
<text x="418.0" y="220" text-anchor="end" font-family="'SFMono-Regular', Consolas, 'Liberation Mono', Menlo, monospace" font-size="12.5" fill="#8b949e">0 / 6</text>
<rect x="40.0" y="234" width="378.0" height="8" rx="4.0" fill="#21262d"/>
<rect x="446.0" y="194" width="410.0" height="64" rx="10" fill="#161b22" stroke="#30363d"/>
<text x="462.0" y="220" font-family="-apple-system, 'Segoe UI', Helvetica, Arial, sans-serif" font-size="13.5" font-weight="600" fill="#e6edf3">Stack</text>
<text x="840.0" y="220" text-anchor="end" font-family="'SFMono-Regular', Consolas, 'Liberation Mono', Menlo, monospace" font-size="12.5" fill="#8b949e">0 / 6</text>
<rect x="462.0" y="234" width="378.0" height="8" rx="4.0" fill="#21262d"/>
<rect x="24.0" y="270" width="410.0" height="64" rx="10" fill="#161b22" stroke="#30363d"/>
<text x="40.0" y="296" font-family="-apple-system, 'Segoe UI', Helvetica, Arial, sans-serif" font-size="13.5" font-weight="600" fill="#e6edf3">Binary Search</text>
<text x="418.0" y="296" text-anchor="end" font-family="'SFMono-Regular', Consolas, 'Liberation Mono', Menlo, monospace" font-size="12.5" fill="#8b949e">0 / 7</text>
<rect x="40.0" y="310" width="378.0" height="8" rx="4.0" fill="#21262d"/>
<rect x="446.0" y="270" width="410.0" height="64" rx="10" fill="#161b22" stroke="#30363d"/>
<text x="462.0" y="296" font-family="-apple-system, 'Segoe UI', Helvetica, Arial, sans-serif" font-size="13.5" font-weight="600" fill="#e6edf3">Linked List</text>
<text x="840.0" y="296" text-anchor="end" font-family="'SFMono-Regular', Consolas, 'Liberation Mono', Menlo, monospace" font-size="12.5" fill="#8b949e">0 / 11</text>
<rect x="462.0" y="310" width="378.0" height="8" rx="4.0" fill="#21262d"/>
<rect x="24.0" y="346" width="410.0" height="64" rx="10" fill="#161b22" stroke="#30363d"/>
<text x="40.0" y="372" font-family="-apple-system, 'Segoe UI', Helvetica, Arial, sans-serif" font-size="13.5" font-weight="600" fill="#e6edf3">Trees</text>
<text x="418.0" y="372" text-anchor="end" font-family="'SFMono-Regular', Consolas, 'Liberation Mono', Menlo, monospace" font-size="12.5" fill="#8b949e">0 / 15</text>
<rect x="40.0" y="386" width="378.0" height="8" rx="4.0" fill="#21262d"/>
<rect x="446.0" y="346" width="410.0" height="64" rx="10" fill="#161b22" stroke="#30363d"/>
<text x="462.0" y="372" font-family="-apple-system, 'Segoe UI', Helvetica, Arial, sans-serif" font-size="13.5" font-weight="600" fill="#e6edf3">Heap / Priority Queue</text>
<text x="840.0" y="372" text-anchor="end" font-family="'SFMono-Regular', Consolas, 'Liberation Mono', Menlo, monospace" font-size="12.5" fill="#8b949e">0 / 7</text>
<rect x="462.0" y="386" width="378.0" height="8" rx="4.0" fill="#21262d"/>
<rect x="24.0" y="422" width="410.0" height="64" rx="10" fill="#161b22" stroke="#30363d"/>
<text x="40.0" y="448" font-family="-apple-system, 'Segoe UI', Helvetica, Arial, sans-serif" font-size="13.5" font-weight="600" fill="#e6edf3">Backtracking</text>
<text x="418.0" y="448" text-anchor="end" font-family="'SFMono-Regular', Consolas, 'Liberation Mono', Menlo, monospace" font-size="12.5" fill="#8b949e">0 / 10</text>
<rect x="40.0" y="462" width="378.0" height="8" rx="4.0" fill="#21262d"/>
<rect x="446.0" y="422" width="410.0" height="64" rx="10" fill="#161b22" stroke="#30363d"/>
<text x="462.0" y="448" font-family="-apple-system, 'Segoe UI', Helvetica, Arial, sans-serif" font-size="13.5" font-weight="600" fill="#e6edf3">Tries</text>
<text x="840.0" y="448" text-anchor="end" font-family="'SFMono-Regular', Consolas, 'Liberation Mono', Menlo, monospace" font-size="12.5" fill="#8b949e">0 / 3</text>
<rect x="462.0" y="462" width="378.0" height="8" rx="4.0" fill="#21262d"/>
<rect x="24.0" y="498" width="410.0" height="64" rx="10" fill="#161b22" stroke="#30363d"/>
<text x="40.0" y="524" font-family="-apple-system, 'Segoe UI', Helvetica, Arial, sans-serif" font-size="13.5" font-weight="600" fill="#e6edf3">Graphs</text>
<text x="418.0" y="524" text-anchor="end" font-family="'SFMono-Regular', Consolas, 'Liberation Mono', Menlo, monospace" font-size="12.5" fill="#8b949e">0 / 13</text>
<rect x="40.0" y="538" width="378.0" height="8" rx="4.0" fill="#21262d"/>
<rect x="446.0" y="498" width="410.0" height="64" rx="10" fill="#161b22" stroke="#30363d"/>
<text x="462.0" y="524" font-family="-apple-system, 'Segoe UI', Helvetica, Arial, sans-serif" font-size="13.5" font-weight="600" fill="#e6edf3">Advanced Graphs</text>
<text x="840.0" y="524" text-anchor="end" font-family="'SFMono-Regular', Consolas, 'Liberation Mono', Menlo, monospace" font-size="12.5" fill="#8b949e">0 / 6</text>
<rect x="462.0" y="538" width="378.0" height="8" rx="4.0" fill="#21262d"/>
<rect x="24.0" y="574" width="410.0" height="64" rx="10" fill="#161b22" stroke="#30363d"/>
<text x="40.0" y="600" font-family="-apple-system, 'Segoe UI', Helvetica, Arial, sans-serif" font-size="13.5" font-weight="600" fill="#e6edf3">1-D Dynamic Programming</text>
<text x="418.0" y="600" text-anchor="end" font-family="'SFMono-Regular', Consolas, 'Liberation Mono', Menlo, monospace" font-size="12.5" fill="#8b949e">0 / 12</text>
<rect x="40.0" y="614" width="378.0" height="8" rx="4.0" fill="#21262d"/>
<rect x="446.0" y="574" width="410.0" height="64" rx="10" fill="#161b22" stroke="#30363d"/>
<text x="462.0" y="600" font-family="-apple-system, 'Segoe UI', Helvetica, Arial, sans-serif" font-size="13.5" font-weight="600" fill="#e6edf3">2-D Dynamic Programming</text>
<text x="840.0" y="600" text-anchor="end" font-family="'SFMono-Regular', Consolas, 'Liberation Mono', Menlo, monospace" font-size="12.5" fill="#8b949e">0 / 11</text>
<rect x="462.0" y="614" width="378.0" height="8" rx="4.0" fill="#21262d"/>
<rect x="24.0" y="650" width="410.0" height="64" rx="10" fill="#161b22" stroke="#30363d"/>
<text x="40.0" y="676" font-family="-apple-system, 'Segoe UI', Helvetica, Arial, sans-serif" font-size="13.5" font-weight="600" fill="#e6edf3">Greedy</text>
<text x="418.0" y="676" text-anchor="end" font-family="'SFMono-Regular', Consolas, 'Liberation Mono', Menlo, monospace" font-size="12.5" fill="#8b949e">0 / 8</text>
<rect x="40.0" y="690" width="378.0" height="8" rx="4.0" fill="#21262d"/>
<rect x="446.0" y="650" width="410.0" height="64" rx="10" fill="#161b22" stroke="#30363d"/>
<text x="462.0" y="676" font-family="-apple-system, 'Segoe UI', Helvetica, Arial, sans-serif" font-size="13.5" font-weight="600" fill="#e6edf3">Intervals</text>
<text x="840.0" y="676" text-anchor="end" font-family="'SFMono-Regular', Consolas, 'Liberation Mono', Menlo, monospace" font-size="12.5" fill="#8b949e">0 / 6</text>
<rect x="462.0" y="690" width="378.0" height="8" rx="4.0" fill="#21262d"/>
<rect x="24.0" y="726" width="410.0" height="64" rx="10" fill="#161b22" stroke="#30363d"/>
<text x="40.0" y="752" font-family="-apple-system, 'Segoe UI', Helvetica, Arial, sans-serif" font-size="13.5" font-weight="600" fill="#e6edf3">Math &amp; Geometry</text>
<text x="418.0" y="752" text-anchor="end" font-family="'SFMono-Regular', Consolas, 'Liberation Mono', Menlo, monospace" font-size="12.5" fill="#8b949e">0 / 8</text>
<rect x="40.0" y="766" width="378.0" height="8" rx="4.0" fill="#21262d"/>
<rect x="446.0" y="726" width="410.0" height="64" rx="10" fill="#161b22" stroke="#30363d"/>
<text x="462.0" y="752" font-family="-apple-system, 'Segoe UI', Helvetica, Arial, sans-serif" font-size="13.5" font-weight="600" fill="#e6edf3">Bit Manipulation</text>
<text x="840.0" y="752" text-anchor="end" font-family="'SFMono-Regular', Consolas, 'Liberation Mono', Menlo, monospace" font-size="12.5" fill="#8b949e">0 / 7</text>
<rect x="462.0" y="766" width="378.0" height="8" rx="4.0" fill="#21262d"/>
</svg>